<svg xmlns="http://www.w3.org/2000/svg" viewBox="0 0 570 760">
<rect width="570" height="760" fill="#eff1f5"/><rect width="570" height="112" fill="#17192b"/>
<rect x="26" y="27" width="260" height="20" rx="5" fill="#fff"/><rect x="26" y="60" width="350" height="8" rx="4" fill="#9b9eaf"/><circle cx="518" cy="42" r="21" fill="#e7472e"/>
<rect y="112" width="570" height="34" fill="#20233a"/><g fill="#dfdfea"><circle cx="35" cy="129" r="5"/><rect x="50" y="125" width="80" height="8" rx="4"/><circle cx="165" cy="129" r="5"/><rect x="180" y="125" width="80" height="8" rx="4"/><circle cx="295" cy="129" r="5"/><rect x="310" y="125" width="80" height="8" rx="4"/></g>
<rect y="146" width="570" height="390" fill="#d9dedb"/><path d="M40 475C98 379 102 241 217 191c91-40 182-2 313 57v288H40z" fill="#c9d3cf"/>
<g fill="#e7472e" stroke="#fff" stroke-width="6"><circle cx="158" cy="227" r="20"/><circle cx="218" cy="272" r="18"/><circle cx="310" cy="385" r="24"/><circle cx="389" cy="332" r="16"/><circle cx="447" cy="439" r="22"/><circle cx="275" cy="468" r="17"/></g>
<rect y="536" width="570" height="224" fill="#f7f7f4"/><rect x="25" y="563" width="150" height="16" rx="5" fill="#1b2134"/>
<g><rect x="25" y="602" width="85" height="32" rx="16" fill="#1b2134"/><rect x="120" y="602" width="85" height="32" rx="16" fill="#fff" stroke="#c9cbd0"/><rect x="215" y="602" width="85" height="32" rx="16" fill="#fff" stroke="#c9cbd0"/><rect x="310" y="602" width="85" height="32" rx="16" fill="#fff" stroke="#c9cbd0"/></g>
<rect x="25" y="656" width="520" height="78" rx="10" fill="#fff" stroke="#9f5ca4" stroke-width="2"/><rect x="46" y="676" width="120" height="11" rx="5" fill="#293044"/><rect x="46" y="698" width="300" height="7" rx="3" fill="#c2c5ca"/>
</svg>
