<svg xmlns="http://www.w3.org/2000/svg" viewBox="0 0 570 760">
<defs><linearGradient id="g" x1="0" y1="0" x2="1" y2="1"><stop stop-color="#185fc7"/><stop offset="1" stop-color="#8d43e8"/></linearGradient></defs>
<rect width="570" height="760" fill="#f2f4f8"/><rect width="570" height="198" fill="url(#g)"/>
<rect x="32" y="47" width="360" height="28" rx="5" fill="#fff"/><rect x="32" y="94" width="310" height="10" rx="5" fill="#d7dbff"/>
<g fill="none" stroke="#d7dbff"><rect x="32" y="133" width="105" height="31" rx="15"/><rect x="147" y="133" width="105" height="31" rx="15"/><rect x="262" y="133" width="105" height="31" rx="15"/></g>
<rect x="22" y="226" width="225" height="18" rx="6" fill="#25304a"/>
<g><rect x="22" y="270" width="160" height="128" rx="12" fill="#fff" stroke="#d8dce4"/><rect x="205" y="270" width="160" height="128" rx="12" fill="#dceaff" stroke="#2862c4" stroke-width="2"/><rect x="388" y="270" width="160" height="128" rx="12" fill="#fff" stroke="#d8dce4"/></g>
<circle cx="102" cy="320" r="23" fill="#f3a519"/><circle cx="285" cy="320" r="23" fill="#2862c4"/><circle cx="468" cy="320" r="23" fill="#15945d"/>
<g fill="#51596a"><rect x="66" y="363" width="72" height="8" rx="4"/><rect x="249" y="363" width="72" height="8" rx="4"/><rect x="432" y="363" width="72" height="8" rx="4"/></g>
<rect x="22" y="442" width="280" height="18" rx="6" fill="#25304a"/>
<rect x="22" y="492" width="526" height="230" rx="12" fill="#fff" stroke="#d8dce4"/><circle cx="59" cy="530" r="16" fill="#2862c4"/><rect x="89" y="518" width="230" height="13" rx="5" fill="#28334d"/><rect x="89" y="544" width="105" height="21" rx="5" fill="#dceaff"/>
<g fill="#9098a8"><rect x="48" y="590" width="405" height="8" rx="4"/><rect x="48" y="617" width="350" height="8" rx="4"/><rect x="48" y="644" width="430" height="8" rx="4"/><rect x="48" y="671" width="300" height="8" rx="4"/></g>
</svg>
