<svg xmlns="http://www.w3.org/2000/svg" viewBox="0 0 570 760">
<rect width="570" height="760" fill="#f7f7f2"/><rect width="570" height="74" fill="#176b42"/>
<circle cx="38" cy="37" r="18" fill="#dcecdf"/><rect x="70" y="24" width="190" height="12" rx="6" fill="#fff"/><rect x="70" y="44" width="135" height="7" rx="3" fill="#bcd4c4"/>
<rect x="390" y="20" width="78" height="34" rx="9" fill="#e4efe5"/><rect x="480" y="29" width="60" height="8" rx="4" fill="#a4c0ae"/>
<rect x="22" y="96" width="526" height="170" rx="17" fill="#fff" stroke="#d6d8d2"/><rect x="45" y="124" width="190" height="15" rx="7" fill="#236f48"/><rect x="45" y="157" width="450" height="8" rx="4" fill="#bbc0ba"/><rect x="45" y="177" width="400" height="8" rx="4" fill="#d0d3ce"/>
<rect x="45" y="211" width="118" height="27" rx="13" fill="#e5f3e8"/><rect x="176" y="211" width="118" height="27" rx="13" fill="#fff2d6"/><rect x="307" y="211" width="118" height="27" rx="13" fill="#e8e8fa"/>
<rect x="22" y="286" width="526" height="420" rx="17" fill="#fff" stroke="#d6d8d2"/><rect x="45" y="315" width="225" height="12" rx="6" fill="#263c31"/>
<g fill="#fafafa" stroke="#d7dad5"><rect x="45" y="350" width="88" height="92" rx="9"/><rect x="142" y="350" width="88" height="92" rx="9"/><rect x="239" y="350" width="88" height="92" rx="9"/><rect x="336" y="350" width="88" height="92" rx="9"/><rect x="433" y="350" width="88" height="92" rx="9"/></g>
<g fill="#f2bd52"><circle cx="89" cy="385" r="14"/><circle cx="186" cy="385" r="14"/><circle cx="283" cy="385" r="14"/><circle cx="380" cy="385" r="14"/><circle cx="477" cy="385" r="14"/></g>
<rect x="45" y="475" width="476" height="92" rx="8" fill="#fafafa" stroke="#d7dad5"/><rect x="60" y="493" width="385" height="8" rx="4" fill="#c9ccc7"/><rect x="60" y="515" width="325" height="8" rx="4" fill="#d8dad6"/>
<rect x="45" y="602" width="476" height="48" rx="8" fill="#176b42"/><rect x="187" y="620" width="190" height="10" rx="5" fill="#fff"/>
</svg>
